<?xml version="1.0" encoding="utf-8"?>
<!-- Generator: Adobe Illustrator 22.0.0, SVG Export Plug-In . SVG Version: 6.00 Build 0)  -->
<svg version="1.1" id="Layer_1" xmlns="http://www.w3.org/2000/svg" xmlns:xlink="http://www.w3.org/1999/xlink" x="0px" y="0px"
	 viewBox="0 0 800 400" style="enable-background:new 0 0 800 400;" xml:space="preserve">
<style type="text/css">
	.st0{fill:#0066CC;}
	.st1{fill:#00070C;}
	.st2{fill:#A7A402;}
	.st3{fill:#FE015E;}
	.st4{fill:#5C8F19;}
	.st5{fill:#990000;}
	.st6{fill:#FF3333;}
	.st7{fill:#FF6699;}
	.st8{fill:#621B75;}
</style>
<g>
	<g>
		<path class="st0" d="M152.1,264.4c6,6.1,11.9,12,18,18.3c-5.7,2.4-11.6,4.9-18,7.6C152.1,281.2,152.1,272.8,152.1,264.4z"/>
		<path class="st0" d="M170.9,150.3c-6.8,6.2-13.1,12-18.9,17.3c0-7.4,0-15.9,0-25C158.3,145.2,164.2,147.6,170.9,150.3z"/>
		<path class="st0" d="M98.8,265.7c0,7,0,15.4,0,24.4c-6.3-2.5-12.1-4.9-18.4-7.4C86.9,276.6,93.1,270.9,98.8,265.7z"/>
		<path class="st0" d="M146.9,175.5c-6.9,6.2-13.2,11.9-19.1,17.1c0-7.2,0-15.7,0-24.8C133.9,170.3,139.9,172.7,146.9,175.5z"/>
		<path class="st0" d="M181.8,227.1c-2.5,6.3-4.9,12.1-7.6,19c-6-6.9-11.6-13.2-16.7-19C164.4,227.1,172.7,227.1,181.8,227.1z"/>
		<path class="st0" d="M59.8,173.8c-8,0-16.4,0-25.4,0c2.6-6.4,5-12.3,7.6-18.6C48.3,161.7,54.1,167.8,59.8,173.8z"/>
		<path class="st0" d="M98.1,231.9c0,7.7,0,16.1,0,25.1c-6.3-2.6-12.2-5-18.5-7.6C86.1,243.3,92.3,237.4,98.1,231.9z"/>
		<path class="st0" d="M132.2,202.6c7.2,0,15.6,0,24.5,0c-2.5,6.2-4.8,12.2-7.4,18.6C143.2,214.6,137.5,208.4,132.2,202.6z"/>
		<path class="st0" d="M60,226.9c-5.5,5.8-11.4,11.9-17.5,18.3c-2.5-6.1-5-12-7.5-18.3C43.9,226.9,52.4,226.9,60,226.9z"/>
		<path class="st0" d="M214.9,226.1c-2.6,6.4-4.9,12.2-7.4,18.5c-6-6.6-11.8-12.8-17-18.5C197.5,226.1,205.8,226.1,214.9,226.1z"/>
		<path class="st0" d="M193.8,272.6c-5.6,2.4-11.5,4.9-18,7.6c0-9.1,0-17.6,0-25.8C181.6,260.3,187.6,266.4,193.8,272.6z"/>
		<path class="st0" d="M189,173c6-6,11.9-12,18.1-18.2c2.6,6,5,11.8,7.8,18.2C205.9,173,197.5,173,189,173z"/>
		<path class="st0" d="M197.5,131.8c2.2,5.2,4.7,11,7.4,17.4c-9,0-17.4,0-25.5,0C185.1,143.7,191.2,137.9,197.5,131.8z"/>
		<path class="st0" d="M98.2,135.6c-6-5.7-12.1-11.5-18.6-17.7c6.4-2.6,12.3-5.1,18.6-7.7C98.2,119.1,98.2,127.6,98.2,135.6z"/>
		<path class="st0" d="M170.4,117.4c-6.9,6.3-13.2,12.1-19.2,17.5c0-7.7,0-16.3,0-25.2C157.3,112.1,163.3,114.5,170.4,117.4z"/>
		<path class="st0" d="M104.1,175.6c6-2.5,11.9-4.9,18.2-7.5c0,9,0,17.4,0,25.5C116.5,187.8,110.4,181.9,104.1,175.6z"/>
		<path class="st0" d="M155.6,172.5c6.3-6.2,12.2-12,18.5-18.2c2.5,5.9,5,11.8,7.7,18.2C172.9,172.5,164.5,172.5,155.6,172.5z"/>
		<path class="st0" d="M127.4,232.6c0-9.3,0-17.8,0-26.1c6,5.9,12,11.9,18.4,18.3C139.9,227.3,134,229.8,127.4,232.6z"/>
		<path class="st0" d="M122.5,267.1c-6.4-2.6-12.2-5-18.5-7.6c6.5-6.1,12.6-11.8,18.5-17.3C122.5,249.7,122.5,258.1,122.5,267.1z"/>
		<path class="st0" d="M65.1,178.7c6.3,6.5,12.1,12.6,18.1,18.7c-8.5,0-16.9,0-25.8,0C59.9,191.3,62.4,185.3,65.1,178.7z"/>
		<path class="st0" d="M217.5,179.2c2,4.8,4.5,10.7,7.3,17.2c-9,0-17.4,0-25.4,0C205.1,190.9,211.3,185,217.5,179.2z"/>
		<path class="st0" d="M65.2,221.2c-2.4-5.9-4.8-11.7-7.5-18.2c8.9,0,17.4,0,25.2,0C77.4,208.7,71.4,214.8,65.2,221.2z"/>
		<path class="st0" d="M166.8,197c5.7-5.6,11.8-11.6,17.9-17.6c2.3,5.4,4.7,11.2,7.5,17.6C183.2,197,174.8,197,166.8,197z"/>
		<path class="st0" d="M122.3,159c-6.2-6.1-12.2-12.1-18.4-18.4c6.1-2.5,12-5,18.4-7.7C122.3,141.8,122.3,150.2,122.3,159z"/>
		<path class="st0" d="M74.9,255c0,7.8,0,16.3,0,25.3c-6.3-2.6-12.2-5.1-18.6-7.7C62.9,266.4,69.1,260.5,74.9,255z"/>
		<path class="st0" d="M146.6,292.5c-5.5,2.3-11.3,4.8-17.7,7.5c0-9,0-17.4,0-26C134.8,280.2,140.6,286.3,146.6,292.5z"/>
		<path class="st0" d="M174.5,144.1c0-7.7,0-16.1,0-24.9c6.2,2.5,12.1,4.9,18.9,7.6C186.7,132.9,180.5,138.5,174.5,144.1z"/>
		<path class="st0" d="M118.6,202.9c-6,6.2-11.8,12.2-18.1,18.7c-2.6-6.4-5-12.3-7.7-18.7C101.8,202.9,110.2,202.9,118.6,202.9z"/>
		<path class="st0" d="M152.6,257.3c0-9.1,0-17.5,0-25.6c5.7,5.8,11.6,11.8,17.7,17.9C165,251.9,159.1,254.4,152.6,257.3z"/>
		<path class="st0" d="M44.2,149.9c2.6-6.3,5-12.1,7.6-18.5c6.1,6.6,11.8,12.8,17.1,18.5C61.7,149.9,53.2,149.9,44.2,149.9z"/>
		<path class="st0" d="M75.5,245.9c-2.6-6.2-5-12.1-7.5-18.4c9,0,17.4,0,25.4,0C87.7,233.3,81.8,239.4,75.5,245.9z"/>
		<path class="st0" d="M50.7,203.2c-6,6.2-11.9,12.2-18,18.6c-2.6-6.3-5.1-12.3-7.7-18.6C33.9,203.2,42.2,203.2,50.7,203.2z"/>
		<path class="st0" d="M97.5,168.9c-5.9-5.9-11.8-11.9-17.9-18.1c5.9-2.5,11.6-4.9,17.9-7.5C97.5,152.1,97.5,160.5,97.5,168.9z"/>
		<path class="st0" d="M127.4,156.9c0-6.9,0-15.3,0-24.2c6.2,2.5,12.1,4.8,18.7,7.4C139.4,146.1,133.1,151.8,127.4,156.9z"/>
		<path class="st0" d="M181.7,249.5c6.2,0,14.6,0,23.5,0c-2.5,6.2-4.8,12-7.4,18.6C192,261.3,186.4,254.9,181.7,249.5z"/>
		<path class="st0" d="M75,119.9c0,9.1,0,17.5,0,25.7c-5.9-5.7-12-11.6-18.6-18C62.7,125,68.6,122.5,75,119.9z"/>
		<path class="st0" d="M149.6,179.7c2.5,5.8,4.9,11.6,7.6,17.9c-8.9,0-17.5,0-25.9,0C137.2,191.9,143.3,186,149.6,179.7z"/>
		<path class="st0" d="M32.6,178.3c6.4,6.7,12.2,12.7,18.1,18.8c-8.2,0-16.6,0-25.8,0C27.5,190.7,29.9,184.8,32.6,178.3z"/>
		<path class="st0" d="M122.1,275c0,7.5,0,15.8,0,24.7c-6.3-2.6-12.2-5-18-7.4C110.3,286.4,116.4,280.5,122.1,275z"/>
		<path class="st0" d="M184.2,221.4c-6-6.8-11.6-13.1-16.7-18.8c7.1,0,15.5,0,24.3,0C189.3,208.6,186.9,214.5,184.2,221.4z"/>
		<path class="st0" d="M52.1,268.4c-2.5-6.2-4.9-12-7.5-18.2c8.9,0,17.2,0,25.3,0C64.2,256.1,58.3,262,52.1,268.4z"/>
		<path class="st0" d="M103.8,107.7c6.1-2.5,11.9-4.9,18.3-7.5c0,9.1,0,17.5,0,25.6C116.3,120,110.2,114,103.8,107.7z"/>
		<path class="st0" d="M122.9,206.6c0,7.9,0,16.4,0,25.5c-6.4-2.6-12.3-5-18.6-7.6C110.9,218.2,117,212.3,122.9,206.6z"/>
		<path class="st0" d="M128,241.7c5.8,5.9,11.7,12,17.9,18.3c-5.6,2.3-11.4,4.8-17.9,7.5C128,258.4,128,249.9,128,241.7z"/>
		<path class="st0" d="M67.5,172.9c2.7-6.5,5.1-12.4,7.6-18.4c6.1,6.3,12,12.4,17.8,18.4C85,172.9,76.6,172.9,67.5,172.9z"/>
		<path class="st0" d="M117.1,197.7c-7.5,0-15.9,0-24.8,0c2.6-6.3,5-12.1,7.4-18.1C105.7,185.9,111.6,192,117.1,197.7z"/>
		<path class="st0" d="M200.2,202.3c7,0,15.4,0,24.3,0c-2.5,6.2-4.9,12-7.4,18.3C211.1,214.1,205.4,207.9,200.2,202.3z"/>
		<path class="st0" d="M127.5,100c6.1,2.5,11.9,4.8,18.4,7.4c-6.6,6-12.8,11.6-18.4,16.6C127.5,117.2,127.5,108.8,127.5,100z"/>
	</g>
	<g>
		<g>
			<path class="st1" d="M288,159.8h0.8c5.5-6.5,28.9-32.8,33.5-38.8c4.5-5.8,8-10.2,8-13.2c0-1.9-0.6-3.2-2.2-3.5
				c-1.4-0.4-2.1-0.7-2.1-1.8c0-1.2,0.8-1.6,2.6-1.6c3.4,0,12.2,0.5,16.5,0.5c5,0,13.8-0.5,18.8-0.5c1.6,0,2.7,0.4,2.7,1.6
				s-0.8,1.6-2.4,1.6c-2.2,0-6.3,0.7-9.3,1.9c-5,2.1-10.4,5.8-17.3,13.2c-5,5.3-29.2,31.7-34.6,38.1c5.8,8.3,37.2,45.5,43.4,52
				c7.1,7.4,14.3,15.3,22.9,19c4.8,2.1,8,2.6,9.9,2.6c1.1,0,2.1,0.4,2.1,1.4c0,1.2-0.8,1.8-3.8,1.8h-13.9c-4.8,0-7.7,0-11.1-0.4
				c-8.7-0.9-13-4.8-19.9-11.5c-7.1-6.9-38.6-47.6-42-52.7l-1.8-2.6H288v16c0,16.2,0,30.2,0.5,37.7c0.3,4.9,1.8,8.8,5.8,9.5
				c2.2,0.4,5.8,0.7,7.9,0.7c1.3,0,2.1,0.5,2.1,1.4c0,1.2-1.3,1.8-3,1.8c-9,0-19.1-0.5-23.1-0.5c-3.7,0-13.8,0.5-20.2,0.5
				c-2.1,0-3.2-0.5-3.2-1.8c0-0.9,0.6-1.4,2.6-1.4c2.4,0,4.3-0.4,5.8-0.7c3.2-0.7,4-4.6,4.6-9.7c0.8-7.4,0.8-21.3,0.8-37.6v-31
				c0-26.8,0-31.7-0.3-37.4c-0.3-6-1.6-8.8-6.9-10.1c-1.3-0.4-4-0.5-6.3-0.5c-1.8,0-2.7-0.4-2.7-1.6s1.1-1.6,3.5-1.6
				c8.5,0,18.6,0.5,22.4,0.5c3.8,0,13.9-0.5,19.4-0.5c2.2,0,3.4,0.4,3.4,1.6s-1,1.6-2.2,1.6c-1.6,0-2.6,0.2-4.5,0.5
				c-4.3,0.9-5.6,3.9-5.9,10.1c-0.3,5.6-0.3,10.6-0.3,37.4V159.8z"/>
			<path class="st1" d="M414.8,104.5c0.5-2.9,1.4-4.5,2.7-4.5c1.3,0,2.2,0.9,4.2,5.3l42.8,97.3l42.7-98.5c1.3-2.8,2-4.1,3.5-4.1
				s2.4,1.7,2.8,5.3L527.7,212c1.4,10.9,3,15.9,7.7,17.4c4.5,1.6,7.7,1.7,9.7,1.7c1.4,0,2.5,0.2,2.5,1.2c0,1.4-1.9,1.9-4.1,1.9
				c-3.9,0-25.6-0.5-31.8-1c-3.6-0.3-4.5-0.9-4.5-1.9c0-0.9,0.6-1.4,1.7-1.9c0.9-0.3,1.4-2.6,0.8-7.4l-9.4-75.9h-0.6l-34.2,78.3
				c-3.6,8.1-4.4,9.7-5.8,9.7c-1.4,0-3-3.4-5.5-8.6c-3.8-7.9-16.2-34.3-18-39.2c-1.4-3.6-10.8-25.4-16.3-38.3h-0.6l-8.2,68.7
				c-0.3,3.1-0.5,5.3-0.5,8.1c0,3.3,2,4.8,4.7,5.5c2.8,0.7,5,0.9,6.6,0.9c1.3,0,2.4,0.3,2.4,1.2c0,1.6-1.4,1.9-3.8,1.9
				c-6.6,0-13.6-0.5-16.5-0.5c-3,0-10.5,0.5-15.5,0.5c-1.6,0-2.8-0.3-2.8-1.9c0-0.9,0.9-1.2,2.5-1.2c1.3,0,2.4,0,4.7-0.5
				c4.4-1,5.6-7.8,6.4-13.6L414.8,104.5z"/>
			<path class="st1" d="M569.3,215.2c-15-14.5-19-33.3-19-49.7c0-11.4,3.2-31.3,17.9-46.1c11-11.1,25.6-17.8,48.4-17.8
				c9.5,0,15.2,0.7,22.2,1.7c5.8,0.8,10.7,2.4,15.3,2.9c1.7,0.2,2.3,1,2.3,2c0,1.3-0.5,3.4-0.8,9.3c-0.3,5.6-0.2,14.8-0.5,18.2
				c-0.2,2.5-0.5,3.9-1.8,3.9c-1.2,0-1.5-1.3-1.5-3.7c-0.2-5.2-2.1-11.1-6-15.5c-5.1-5.9-17-10.4-31.1-10.4
				c-13.3,0-22,3.7-28.8,10.4c-11.2,11.3-14.1,27.3-14.1,43.6c0,40.1,27.7,59.9,48.2,59.9c13.6,0,21.9-1.7,28-9.4
				c2.6-3.2,4.6-8.1,5.2-11.1c0.5-2.7,0.8-3.4,2-3.4c1.1,0,1.4,1.2,1.4,2.5c0,2-1.8,16.7-3.4,22.4c-0.8,2.9-1.4,3.7-4,4.9
				c-6.1,2.7-17.8,3.9-27.5,3.9C600.8,233.6,583.2,228.5,569.3,215.2z"/>
			<path class="st1" d="M712.9,112.2l-23.6,0.7c-9.2,0.3-13,1.2-15.4,5.1c-1.6,2.6-2.4,4.7-2.7,6.1c-0.3,1.4-0.8,2.1-1.7,2.1
				c-1.1,0-1.4-0.9-1.4-2.8c0-2.8,3-18.6,3.3-20c0.5-2.3,1-3.3,1.9-3.3c1.3,0,2.9,1.7,6.8,2.1c4.6,0.5,10.6,0.9,15.8,0.9h62.7
				c5.1,0,8.6-0.5,10.9-0.9c2.4-0.5,3.6-0.9,4.3-0.9c1.1,0,1.3,1,1.3,3.7c0,3.7-0.5,15.7-0.5,20.2c-0.2,1.7-0.5,2.8-1.4,2.8
				c-1.3,0-1.6-0.9-1.7-3.5l-0.2-1.9c-0.3-4.5-4.6-9.4-18.7-9.8l-20-0.5v71.5c0,16,0,29.8,0.8,37.3c0.5,4.9,1.4,8.7,6.2,9.4
				c2.2,0.3,5.7,0.7,8.1,0.7c1.7,0,2.5,0.5,2.5,1.4c0,1.2-1.3,1.7-3,1.7c-10.5,0-20.4-0.5-24.9-0.5c-3.6,0-13.6,0.5-20,0.5
				c-2.1,0-3.2-0.5-3.2-1.7c0-0.9,0.6-1.4,2.5-1.4c2.4,0,4.3-0.3,5.7-0.7c3.2-0.7,4.1-4.5,4.6-9.6c0.8-7.3,0.8-21.1,0.8-37.1V112.2z
				"/>
		</g>
		<g>
			<path d="M258.8,295.5c-3.6-3.5-4.5-8-4.5-11.9c0-2.7,0.8-7.5,4.3-11c2.6-2.7,6.1-4.3,11.6-4.3c2.3,0,3.6,0.2,5.3,0.4
				c1.4,0.2,2.6,0.6,3.7,0.7c0.4,0,0.5,0.2,0.5,0.5c0,0.3-0.1,0.8-0.2,2.2c-0.1,1.3,0,3.5-0.1,4.4c0,0.6-0.1,0.9-0.4,0.9
				c-0.3,0-0.4-0.3-0.4-0.9c0-1.2-0.5-2.7-1.4-3.7c-1.2-1.4-4.1-2.5-7.4-2.5c-3.2,0-5.3,0.9-6.9,2.5c-2.7,2.7-3.4,6.5-3.4,10.4
				c0,9.6,6.6,14.3,11.5,14.3c3.3,0,5.2-0.4,6.7-2.3c0.6-0.8,1.1-1.9,1.2-2.7c0.1-0.6,0.2-0.8,0.5-0.8c0.3,0,0.3,0.3,0.3,0.6
				c0,0.5-0.4,4-0.8,5.4c-0.2,0.7-0.3,0.9-1,1.2c-1.5,0.6-4.3,0.9-6.6,0.9C266.3,299.9,262.1,298.7,258.8,295.5z"/>
			<path d="M283.6,286.4c0-5.8,3.7-13.4,13.5-13.4c8.1,0,13.2,5,13.2,12.8c0,7.9-5.2,14-13.5,14
				C287.5,299.8,283.6,292.5,283.6,286.4z M305.6,287c0-7.6-4.1-12.3-9.3-12.3c-3.6,0-7.8,2.1-7.8,10.6c0,7.1,3.7,12.6,9.7,12.6
				C300.4,297.9,305.6,296.8,305.6,287z"/>
			<path d="M321.4,289.4c0,4.4,0,6.6,0.7,7.2c0.5,0.5,1.8,0.7,4.3,0.7c1.7,0,3,0,3.8-1c0.4-0.4,0.7-1.4,0.8-2.1
				c0-0.3,0.1-0.5,0.4-0.5c0.2,0,0.3,0.4,0.3,0.8c0,0.4-0.2,2.9-0.5,3.9c-0.2,0.8-0.4,0.9-2.1,0.9c-2.3,0-4.2,0-5.8-0.1
				c-1.6,0-3-0.1-4.3-0.1c-0.4,0-1.1,0-1.8,0c-0.8,0-1.6,0.1-2.2,0.1c-0.4,0-0.6-0.1-0.6-0.4c0-0.2,0.1-0.4,0.5-0.4
				c0.5,0,0.8,0,1.1-0.1c0.7-0.2,0.8-0.8,1-1.8c0.1-1.5,0.1-4.2,0.1-7.3v-6c0-5.2,0-6.2,0-7.3c-0.1-1.2-0.4-1.5-1.4-1.9
				c-0.3-0.1-0.7-0.1-1.1-0.1c-0.4,0-0.5-0.1-0.5-0.4c0-0.2,0.2-0.3,0.7-0.3c1.5,0,3.6,0.1,4.4,0.1c0.8,0,3.4-0.1,4.7-0.1
				c0.5,0,0.7,0.1,0.7,0.3c0,0.2-0.2,0.4-0.6,0.4c-0.4,0-0.9,0-1.2,0.1c-0.9,0.2-1.1,0.6-1.2,1.9c-0.1,1.1-0.1,2.1-0.1,7.3V289.4z"
				/>
			<path d="M342.5,289.4c0,4.4,0,6.6,0.7,7.2c0.5,0.5,1.8,0.7,4.3,0.7c1.7,0,3,0,3.8-1c0.4-0.4,0.7-1.4,0.8-2.1
				c0-0.3,0.1-0.5,0.4-0.5c0.2,0,0.3,0.4,0.3,0.8c0,0.4-0.2,2.9-0.5,3.9c-0.2,0.8-0.4,0.9-2.1,0.9c-2.3,0-4.2,0-5.8-0.1
				c-1.6,0-3-0.1-4.3-0.1c-0.4,0-1.1,0-1.8,0c-0.8,0-1.6,0.1-2.2,0.1c-0.4,0-0.6-0.1-0.6-0.4c0-0.2,0.1-0.4,0.5-0.4
				c0.5,0,0.8,0,1.1-0.1c0.7-0.2,0.8-0.8,1-1.8c0.1-1.5,0.1-4.2,0.1-7.3v-6c0-5.2,0-6.2,0-7.3c-0.1-1.2-0.4-1.5-1.4-1.9
				c-0.3-0.1-0.7-0.1-1.1-0.1c-0.4,0-0.5-0.1-0.5-0.4c0-0.2,0.2-0.3,0.7-0.3c1.5,0,3.6,0.1,4.4,0.1c0.8,0,3.4-0.1,4.7-0.1
				c0.5,0,0.7,0.1,0.7,0.3c0,0.2-0.2,0.4-0.6,0.4c-0.4,0-0.9,0-1.2,0.1c-0.9,0.2-1.1,0.6-1.2,1.9c-0.1,1.1-0.1,2.1-0.1,7.3V289.4z"
				/>
			<path d="M359.2,283.4c0-5.2,0-6.2,0-7.3c-0.1-1.2-0.4-1.5-1.4-1.9c-0.3-0.1-0.8-0.1-1.3-0.1c-0.3,0-0.5-0.1-0.5-0.4
				c0-0.2,0.3-0.3,0.7-0.3c1.7,0,3.7,0.1,4.7,0.1c1,0,8.2,0,8.8,0c0.6,0,1.1-0.2,1.4-0.2c0.2,0,0.4-0.2,0.5-0.2
				c0.2,0,0.2,0.2,0.2,0.3c0,0.2-0.2,0.6-0.3,2.2c0,0.4-0.1,1.9-0.2,2.3c0,0.2-0.1,0.6-0.4,0.6c-0.2,0-0.3-0.2-0.3-0.4
				c0-0.2,0-0.8-0.2-1.2c-0.3-0.6-0.5-1.1-2.1-1.2c-0.5-0.1-4.4-0.2-5.1-0.2c-0.1,0-0.2,0.1-0.2,0.3v8.5c0,0.2,0,0.4,0.2,0.4
				c0.7,0,4.9,0,5.6-0.1c0.8-0.1,1.2-0.2,1.5-0.5c0.3-0.2,0.4-0.4,0.5-0.4c0.1,0,0.3,0.2,0.3,0.4s-0.1,0.8-0.3,2.5
				c-0.1,0.7-0.1,2.1-0.1,2.3c0,0.3,0,0.8-0.3,0.8c-0.2,0-0.3-0.1-0.3-0.3c0-0.4,0-0.8-0.1-1.2c-0.2-0.7-0.6-1.2-1.8-1.3
				c-0.6-0.1-4.3-0.2-5.1-0.2c-0.1,0-0.2,0.2-0.2,0.4v2.7c0,1.2,0,4.1,0,5.1c0.1,2.3,1.1,2.9,4.4,2.9c0.8,0,2.2,0,3-0.4
				c0.8-0.4,1.2-1.1,1.4-2.5c0.1-0.4,0.1-0.5,0.4-0.5c0.3,0,0.3,0.4,0.3,0.8c0,0.8-0.3,3.1-0.4,3.8c-0.2,0.9-0.5,0.9-1.7,0.9
				c-2.4,0-4.4,0-5.9-0.1c-1.6,0-2.8-0.1-3.7-0.1c-0.4,0-1.1,0-1.8,0c-0.8,0-1.6,0.1-2.2,0.1c-0.4,0-0.6-0.1-0.6-0.4
				c0-0.2,0.1-0.4,0.5-0.4c0.5,0,0.8,0,1.1-0.1c0.7-0.2,0.8-0.8,1-1.8c0.1-1.5,0.1-4.2,0.1-7.3V283.4z"/>
			<path d="M400.5,297.1c0,0.9,0,1-0.4,1.2c-2.2,1.2-5.3,1.5-7.9,1.5c-7.9,0-14.9-3.9-14.9-13.4c0-5.5,2.7-9.3,5.6-11.2
				c3.1-2,6-2.2,8.7-2.2c2.2,0,5.1,0.4,5.7,0.6c0.7,0.1,1.8,0.3,2.6,0.4c0.4,0,0.4,0.2,0.4,0.4c0,0.4-0.2,1.3-0.2,5.6
				c0,0.5-0.2,0.8-0.4,0.8c-0.2,0-0.3-0.2-0.3-0.4c-0.1-0.8-0.3-1.9-1.1-2.8c-1-1.1-3.4-2.6-7-2.6c-1.8,0-4,0-6.2,2
				c-1.8,1.6-3,4.2-3,8.3c0,7.4,4.3,12.7,11.2,12.7c0.8,0,1.5,0,2.3-0.4c0.5-0.2,0.6-0.6,0.6-1.2v-3.1c0-1.7,0-3,0-4
				c0-1.2-0.4-1.5-1.4-1.9c-0.3-0.1-0.8-0.1-1.2-0.1c-0.3,0-0.5-0.2-0.5-0.4c0-0.3,0.3-0.3,0.7-0.3c1.7,0,4,0.1,4.9,0.1
				c1,0,2.7-0.1,3.8-0.1c0.4,0,0.7,0,0.7,0.3c0,0.2-0.2,0.4-0.4,0.4c-0.3,0-0.5,0-0.9,0.1c-0.9,0.2-1.2,0.6-1.2,1.9c0,1,0,2.4,0,4.1
				V297.1z"/>
			<path d="M409.2,283.4c0-5.2,0-6.2,0-7.3c-0.1-1.2-0.4-1.5-1.4-1.9c-0.3-0.1-0.8-0.1-1.3-0.1c-0.3,0-0.5-0.1-0.5-0.4
				c0-0.2,0.3-0.3,0.7-0.3c1.7,0,3.7,0.1,4.7,0.1c1,0,8.2,0,8.8,0c0.6,0,1.1-0.2,1.4-0.2c0.2,0,0.4-0.2,0.5-0.2
				c0.2,0,0.2,0.2,0.2,0.3c0,0.2-0.2,0.6-0.3,2.2c0,0.4-0.1,1.9-0.2,2.3c0,0.2-0.1,0.6-0.4,0.6c-0.2,0-0.3-0.2-0.3-0.4
				c0-0.2,0-0.8-0.2-1.2c-0.3-0.6-0.5-1.1-2.1-1.2c-0.5-0.1-4.4-0.2-5.1-0.2c-0.1,0-0.2,0.1-0.2,0.3v8.5c0,0.2,0,0.4,0.2,0.4
				c0.7,0,4.9,0,5.6-0.1c0.8-0.1,1.2-0.2,1.5-0.5c0.3-0.2,0.4-0.4,0.5-0.4c0.1,0,0.3,0.2,0.3,0.4s-0.1,0.8-0.3,2.5
				c-0.1,0.7-0.1,2.1-0.1,2.3c0,0.3,0,0.8-0.3,0.8c-0.2,0-0.3-0.1-0.3-0.3c0-0.4,0-0.8-0.1-1.2c-0.2-0.7-0.6-1.2-1.8-1.3
				c-0.6-0.1-4.3-0.2-5.1-0.2c-0.1,0-0.2,0.2-0.2,0.4v2.7c0,1.2,0,4.1,0,5.1c0.1,2.3,1.1,2.9,4.4,2.9c0.8,0,2.2,0,3-0.4
				c0.8-0.4,1.2-1.1,1.4-2.5c0.1-0.4,0.1-0.5,0.4-0.5c0.3,0,0.3,0.4,0.3,0.8c0,0.8-0.3,3.1-0.4,3.8c-0.2,0.9-0.5,0.9-1.7,0.9
				c-2.4,0-4.4,0-5.9-0.1c-1.6,0-2.8-0.1-3.7-0.1c-0.4,0-1.1,0-1.8,0c-0.8,0-1.6,0.1-2.2,0.1c-0.4,0-0.6-0.1-0.6-0.4
				c0-0.2,0.1-0.4,0.5-0.4c0.5,0,0.8,0,1.1-0.1c0.7-0.2,0.8-0.8,1-1.8c0.1-1.5,0.1-4.2,0.1-7.3V283.4z"/>
			<path d="M439.6,286.4c0-5.8,3.7-13.4,13.5-13.4c8.1,0,13.2,5,13.2,12.8c0,7.9-5.2,14-13.5,14
				C443.4,299.8,439.6,292.5,439.6,286.4z M461.5,287c0-7.6-4.1-12.3-9.3-12.3c-3.6,0-7.8,2.1-7.8,10.6c0,7.1,3.7,12.6,9.7,12.6
				C456.4,297.9,461.5,296.8,461.5,287z"/>
			<path d="M477.3,289.5c0,3.3,0,5.7,0.2,7.2c0.1,1,0.3,1.7,1.3,1.8c0.4,0.1,1.1,0.1,1.6,0.1c0.4,0,0.5,0.2,0.5,0.4
				c0,0.2-0.2,0.4-0.7,0.4c-2.1,0-4.3-0.1-5.2-0.1c-0.8,0-2.9,0.1-4.1,0.1c-0.4,0-0.7-0.1-0.7-0.4c0-0.2,0.1-0.4,0.5-0.4
				c0.5,0,0.8,0,1.1-0.1c0.7-0.2,0.8-0.8,1-1.8c0.1-1.5,0.1-4,0.1-7.3v-6c0-5.2,0-6.2,0-7.3c-0.1-1.2-0.4-1.6-1.4-1.9
				c-0.3-0.1-0.8-0.1-1.3-0.1c-0.3,0-0.5-0.1-0.5-0.4c0-0.2,0.3-0.3,0.8-0.3c1.6,0,3.7,0.1,4.6,0.1c1.2,0,8.4,0,9.2,0
				c0.6,0,1-0.1,1.3-0.2c0.2,0,0.3-0.2,0.5-0.2c0.1,0,0.2,0.2,0.2,0.3c0,0.2-0.1,0.6-0.3,1.5c0,0.4-0.1,2.4-0.1,2.8
				c0,0.3-0.1,0.7-0.3,0.7c-0.2,0-0.4-0.2-0.4-0.6c0-0.3,0-0.8-0.2-1.3c-0.2-0.5-0.8-1-2.1-1l-5.3-0.1c-0.2,0-0.3,0.1-0.3,0.5v8.3
				c0,0.2,0,0.3,0.2,0.3l4.5,0c0.5,0,1,0,1.5,0c0.6,0,1.1-0.2,1.4-0.6c0.2-0.2,0.3-0.4,0.4-0.4c0.1,0,0.2,0.1,0.2,0.3
				c0,0.2-0.1,1.1-0.3,2.2c-0.1,0.7-0.1,2.3-0.1,2.5c0,0.3,0,0.8-0.4,0.8c-0.2,0-0.3-0.2-0.3-0.5c0-0.2-0.1-0.6-0.2-1
				c-0.1-0.5-0.5-1.2-1.5-1.2c-0.8-0.1-4.6-0.1-5.2-0.1c-0.1,0-0.2,0-0.2,0.3V289.5z"/>
			<path d="M507.3,280.6c0-6.1,0-7.3-0.1-8.5c-0.1-1.4-0.4-2-1.6-2.3c-0.3-0.1-0.9-0.1-1.4-0.1c-0.4,0-0.6-0.1-0.6-0.4
				c0-0.3,0.3-0.4,0.8-0.4c1,0,2.1,0,3,0c1,0,1.8,0.1,2.3,0.1c1.2,0,8.5,0,9.2,0c0.7-0.1,1.3-0.2,1.6-0.2c0.2,0,0.4-0.2,0.6-0.2
				c0.2,0,0.2,0.2,0.2,0.4c0,0.3-0.2,0.8-0.3,2.6c0,0.4-0.1,2.2-0.2,2.7c0,0.2-0.1,0.4-0.4,0.4c-0.3,0-0.3-0.2-0.3-0.6
				c0-0.3,0-1-0.2-1.4c-0.3-0.7-0.6-1.2-2.5-1.5c-0.6-0.1-4.5-0.2-5.2-0.2c-0.2,0-0.3,0.1-0.3,0.4v10.2c0,0.3,0,0.4,0.3,0.4
				c0.8,0,5,0,5.9-0.1c0.9-0.1,1.4-0.2,1.8-0.6c0.3-0.3,0.4-0.5,0.6-0.5c0.1,0,0.3,0.1,0.3,0.3c0,0.2-0.1,0.9-0.3,2.9
				c0,0.8-0.1,2.4-0.1,2.7c0,0.3,0,0.8-0.3,0.8c-0.3,0-0.3-0.2-0.3-0.4c0-0.4,0-0.9-0.1-1.5c-0.2-0.8-0.7-1.4-2.1-1.6
				c-0.7-0.1-4.3-0.1-5.2-0.1c-0.2,0-0.2,0.2-0.2,0.4v3.2c0,1.4,0,5.1,0,6.2c0.1,2.8,0.7,3.4,4.4,3.4c1,0,2.5,0,3.4-0.5
				c1-0.5,1.4-1.3,1.6-3c0.1-0.4,0.1-0.6,0.4-0.6c0.3,0,0.3,0.3,0.3,0.7c0,0.9-0.3,3.7-0.5,4.5c-0.3,1-0.6,1-2,1
				c-2.7,0-4.8-0.1-6.3-0.1c-1.6-0.1-2.7-0.1-3.8-0.1c-0.4,0-1.2,0-2.1,0c-0.8,0-1.8,0.1-2.5,0.1c-0.5,0-0.7-0.1-0.7-0.4
				c0-0.2,0.1-0.3,0.6-0.3c0.5,0,1-0.1,1.3-0.2c0.7-0.2,0.9-1,1.1-2.2c0.2-1.7,0.2-4.9,0.2-8.6V280.6z"/>
			<path d="M532.2,294.7c0.1,2.7,0.5,3.5,1.1,3.7c0.5,0.2,1.2,0.2,1.7,0.2c0.4,0,0.5,0.2,0.5,0.4c0,0.3-0.3,0.4-0.7,0.4
				c-2.1,0-3.6-0.1-4.2-0.1c-0.3,0-1.8,0.1-3.5,0.1c-0.4,0-0.7,0-0.7-0.4c0-0.2,0.2-0.4,0.5-0.4c0.4,0,1,0,1.5-0.2
				c0.8-0.2,1-1.2,1-4.1l0.3-20.3c0-0.7,0.2-1.2,0.5-1.2c0.4,0,0.8,0.5,1.4,1.1c0.4,0.4,5.2,5.9,9.9,10.9c2.2,2.4,6.5,7.2,7,7.7h0.1
				l-0.3-15.2c0-2.1-0.3-2.7-1.1-3c-0.5-0.2-1.2-0.2-1.7-0.2c-0.4,0-0.5-0.2-0.5-0.4c0-0.3,0.3-0.3,0.8-0.3c1.7,0,3.4,0.1,4.1,0.1
				c0.4,0,1.6-0.1,3.2-0.1c0.4,0,0.7,0,0.7,0.3c0,0.2-0.2,0.4-0.5,0.4c-0.3,0-0.6,0-1,0.1c-0.9,0.3-1.1,0.9-1.2,2.8l-0.4,21.6
				c0,0.8-0.3,1.1-0.5,1.1c-0.5,0-1-0.4-1.3-0.7c-2-2.1-6-6.3-9.4-9.9c-3.5-3.7-6.9-7.9-7.5-8.5h-0.1L532.2,294.7z"/>
			<path d="M580.6,297.1c0,0.9,0,1-0.4,1.2c-2.2,1.2-5.3,1.5-7.9,1.5c-7.9,0-14.9-3.9-14.9-13.4c0-5.5,2.7-9.3,5.6-11.2
				c3.1-2,6-2.2,8.7-2.2c2.2,0,5.1,0.4,5.7,0.6c0.7,0.1,1.8,0.3,2.6,0.4c0.4,0,0.4,0.2,0.4,0.4c0,0.4-0.2,1.3-0.2,5.6
				c0,0.5-0.2,0.8-0.4,0.8c-0.2,0-0.3-0.2-0.3-0.4c-0.1-0.8-0.3-1.9-1.1-2.8c-1-1.1-3.4-2.6-7-2.6c-1.8,0-4,0-6.2,2
				c-1.8,1.6-3,4.2-3,8.3c0,7.4,4.3,12.7,11.2,12.7c0.8,0,1.5,0,2.3-0.4c0.5-0.2,0.6-0.6,0.6-1.2v-3.1c0-1.7,0-3,0-4
				c0-1.2-0.4-1.5-1.4-1.9c-0.3-0.1-0.8-0.1-1.2-0.1c-0.3,0-0.5-0.2-0.5-0.4c0-0.3,0.3-0.3,0.7-0.3c1.7,0,4,0.1,4.9,0.1
				c1,0,2.7-0.1,3.8-0.1c0.4,0,0.7,0,0.7,0.3c0,0.2-0.2,0.4-0.4,0.4c-0.3,0-0.5,0-0.9,0.1c-0.9,0.2-1.2,0.6-1.2,1.9c0,1,0,2.4,0,4.1
				V297.1z"/>
			<path d="M589.3,283.4c0-5.2,0-6.2,0-7.3c-0.1-1.2-0.4-1.6-1.1-1.8c-0.4-0.1-0.8-0.2-1.2-0.2c-0.3,0-0.5-0.1-0.5-0.4
				c0-0.2,0.3-0.3,0.8-0.3c1.2,0,3.4,0.1,4.3,0.1c0.8,0,2.9-0.1,4.1-0.1c0.4,0,0.7,0.1,0.7,0.3c0,0.3-0.2,0.4-0.5,0.4
				c-0.3,0-0.6,0-1,0.1c-0.9,0.2-1.1,0.6-1.2,1.9c-0.1,1.1-0.1,2.1-0.1,7.3v6c0,3.3,0,6,0.1,7.5c0.1,0.9,0.3,1.4,1.3,1.6
				c0.4,0.1,1.2,0.1,1.6,0.1c0.4,0,0.5,0.2,0.5,0.4c0,0.2-0.3,0.4-0.6,0.4c-2.1,0-4.3-0.1-5.2-0.1c-0.7,0-2.9,0.1-4.2,0.1
				c-0.4,0-0.6-0.1-0.6-0.4c0-0.2,0.1-0.4,0.5-0.4c0.5,0,0.8,0,1.1-0.1c0.7-0.2,0.8-0.6,1-1.7c0.1-1.4,0.1-4.2,0.1-7.5V283.4z"/>
			<path d="M607.1,294.7c0.1,2.7,0.5,3.5,1.1,3.7c0.5,0.2,1.2,0.2,1.7,0.2c0.4,0,0.5,0.2,0.5,0.4c0,0.3-0.3,0.4-0.7,0.4
				c-2.1,0-3.6-0.1-4.2-0.1c-0.3,0-1.8,0.1-3.5,0.1c-0.4,0-0.7,0-0.7-0.4c0-0.2,0.2-0.4,0.5-0.4c0.4,0,1,0,1.5-0.2
				c0.8-0.2,1-1.2,1-4.1l0.3-20.3c0-0.7,0.2-1.2,0.5-1.2c0.4,0,0.8,0.5,1.4,1.1c0.4,0.4,5.2,5.9,9.9,10.9c2.2,2.4,6.5,7.2,7,7.7h0.1
				l-0.3-15.2c0-2.1-0.3-2.7-1.1-3c-0.5-0.2-1.2-0.2-1.7-0.2c-0.4,0-0.5-0.2-0.5-0.4c0-0.3,0.3-0.3,0.8-0.3c1.7,0,3.4,0.1,4.1,0.1
				c0.4,0,1.6-0.1,3.2-0.1c0.4,0,0.7,0,0.7,0.3c0,0.2-0.2,0.4-0.5,0.4c-0.3,0-0.6,0-1,0.1c-0.9,0.3-1.1,0.9-1.2,2.8l-0.4,21.6
				c0,0.8-0.3,1.1-0.5,1.1c-0.5,0-1-0.4-1.3-0.7c-2-2.1-6-6.3-9.4-9.9c-3.5-3.7-6.9-7.9-7.5-8.5h-0.1L607.1,294.7z"/>
			<path d="M636.4,283.4c0-5.2,0-6.2,0-7.3c-0.1-1.2-0.4-1.5-1.4-1.9c-0.3-0.1-0.8-0.1-1.3-0.1c-0.3,0-0.5-0.1-0.5-0.4
				c0-0.2,0.3-0.3,0.7-0.3c1.7,0,3.7,0.1,4.7,0.1c1,0,8.2,0,8.8,0c0.6,0,1.1-0.2,1.4-0.2c0.2,0,0.4-0.2,0.5-0.2
				c0.2,0,0.2,0.2,0.2,0.3c0,0.2-0.2,0.6-0.3,2.2c0,0.4-0.1,1.9-0.2,2.3c0,0.2-0.1,0.6-0.4,0.6c-0.2,0-0.3-0.2-0.3-0.4
				c0-0.2,0-0.8-0.2-1.2c-0.3-0.6-0.5-1.1-2.1-1.2c-0.5-0.1-4.4-0.2-5.1-0.2c-0.1,0-0.2,0.1-0.2,0.3v8.5c0,0.2,0,0.4,0.2,0.4
				c0.7,0,4.9,0,5.6-0.1c0.8-0.1,1.2-0.2,1.5-0.5c0.3-0.2,0.4-0.4,0.5-0.4c0.1,0,0.3,0.2,0.3,0.4s-0.1,0.8-0.3,2.5
				c-0.1,0.7-0.1,2.1-0.1,2.3c0,0.3,0,0.8-0.3,0.8c-0.2,0-0.3-0.1-0.3-0.3c0-0.4,0-0.8-0.1-1.2c-0.2-0.7-0.6-1.2-1.8-1.3
				c-0.6-0.1-4.2-0.2-5.1-0.2c-0.1,0-0.2,0.2-0.2,0.4v2.7c0,1.2,0,4.1,0,5.1c0.1,2.3,1.1,2.9,4.4,2.9c0.8,0,2.2,0,3-0.4
				c0.8-0.4,1.2-1.1,1.4-2.5c0.1-0.4,0.1-0.5,0.4-0.5c0.3,0,0.3,0.4,0.3,0.8c0,0.8-0.3,3.1-0.4,3.8c-0.2,0.9-0.5,0.9-1.7,0.9
				c-2.4,0-4.4,0-5.9-0.1c-1.6,0-2.8-0.1-3.7-0.1c-0.4,0-1.1,0-1.8,0c-0.8,0-1.6,0.1-2.2,0.1c-0.4,0-0.6-0.1-0.6-0.4
				c0-0.2,0.1-0.4,0.5-0.4c0.5,0,0.8,0,1.1-0.1c0.7-0.2,0.8-0.8,1-1.8c0.1-1.5,0.1-4.2,0.1-7.3V283.4z"/>
			<path d="M657.6,283.4c0-5.2,0-6.2,0-7.3c-0.1-1.2-0.4-1.5-1.4-1.9c-0.3-0.1-0.8-0.1-1.3-0.1c-0.3,0-0.5-0.1-0.5-0.4
				c0-0.2,0.3-0.3,0.7-0.3c1.7,0,3.7,0.1,4.7,0.1c1,0,8.2,0,8.8,0c0.6,0,1.1-0.2,1.4-0.2c0.2,0,0.4-0.2,0.5-0.2
				c0.2,0,0.2,0.2,0.2,0.3c0,0.2-0.2,0.6-0.3,2.2c0,0.4-0.1,1.9-0.2,2.3c0,0.2-0.1,0.6-0.4,0.6c-0.2,0-0.3-0.2-0.3-0.4
				c0-0.2,0-0.8-0.2-1.2c-0.3-0.6-0.5-1.1-2.1-1.2c-0.5-0.1-4.4-0.2-5.1-0.2c-0.1,0-0.2,0.1-0.2,0.3v8.5c0,0.2,0,0.4,0.2,0.4
				c0.7,0,4.9,0,5.6-0.1c0.8-0.1,1.2-0.2,1.5-0.5c0.3-0.2,0.4-0.4,0.5-0.4c0.1,0,0.3,0.2,0.3,0.4s-0.1,0.8-0.3,2.5
				c-0.1,0.7-0.1,2.1-0.1,2.3c0,0.3,0,0.8-0.3,0.8c-0.2,0-0.3-0.1-0.3-0.3c0-0.4,0-0.8-0.1-1.2c-0.2-0.7-0.6-1.2-1.8-1.3
				c-0.6-0.1-4.2-0.2-5.1-0.2c-0.1,0-0.2,0.2-0.2,0.4v2.7c0,1.2,0,4.1,0,5.1c0.1,2.3,1.1,2.9,4.4,2.9c0.8,0,2.2,0,3-0.4
				c0.8-0.4,1.2-1.1,1.4-2.5c0.1-0.4,0.1-0.5,0.4-0.5c0.3,0,0.3,0.4,0.3,0.8c0,0.8-0.3,3.1-0.4,3.8c-0.2,0.9-0.5,0.9-1.7,0.9
				c-2.4,0-4.4,0-5.9-0.1c-1.6,0-2.8-0.1-3.7-0.1c-0.4,0-1.1,0-1.8,0c-0.8,0-1.6,0.1-2.2,0.1c-0.4,0-0.6-0.1-0.6-0.4
				c0-0.2,0.1-0.4,0.5-0.4c0.5,0,0.8,0,1.1-0.1c0.7-0.2,0.8-0.8,1-1.8c0.1-1.5,0.1-4.2,0.1-7.3V283.4z"/>
			<path d="M678.8,283.4c0-5.2,0-6.2,0-7.3c-0.1-1.2-0.4-1.5-1.4-1.9c-0.3-0.1-0.8-0.1-1.3-0.1c-0.3,0-0.5-0.1-0.5-0.4
				c0-0.2,0.3-0.3,0.7-0.3c1.7,0,3.7,0.1,4.4,0.1c1.1,0,4-0.1,5-0.1c2.1,0,4.4,0.2,6.1,1.5c0.9,0.7,2.3,2.4,2.3,4.7
				c0,2.5-1.3,4.8-4.5,7.6c2.9,3.9,5.1,7,7.1,9.1c1.8,2,2.9,2.1,3.4,2.3c0.3,0.1,0.5,0.1,0.8,0.1c0.3,0,0.4,0.2,0.4,0.4
				c0,0.3-0.2,0.4-0.6,0.4h-3.1c-1.8,0-2.7-0.2-3.5-0.7c-1.4-0.8-2.6-2.4-4.4-5c-1.3-1.9-2.6-4.2-3-4.7c-0.2-0.2-0.4-0.2-0.6-0.2
				l-2.9-0.1c-0.1,0-0.3,0.1-0.3,0.3v0.5c0,3.2,0,5.8,0.2,7.3c0.1,1,0.3,1.7,1.2,1.8c0.5,0.1,1.2,0.1,1.6,0.1c0.3,0,0.4,0.2,0.4,0.4
				c0,0.2-0.3,0.4-0.7,0.4c-1.9,0-4.5-0.1-5-0.1c-0.6,0-2.7,0.1-4,0.1c-0.4,0-0.6-0.1-0.6-0.4c0-0.2,0.1-0.4,0.5-0.4
				c0.5,0,0.8,0,1.1-0.1c0.7-0.2,0.8-0.8,1-1.8c0.1-1.5,0.1-4.2,0.1-7.3V283.4z M682.9,286c0,0.4,0.1,0.5,0.3,0.6
				c0.7,0.2,1.6,0.3,2.5,0.3c1.3,0,1.7-0.1,2.3-0.6c1-0.8,2.1-2.3,2.1-5.1c0-4.8-3-6.1-4.9-6.1c-0.8,0-1.6,0-1.9,0.1
				c-0.2,0.1-0.3,0.2-0.3,0.5V286z"/>
			<path d="M706.5,283.4c0-5.2,0-6.2,0-7.3c-0.1-1.2-0.4-1.6-1.1-1.8c-0.4-0.1-0.8-0.2-1.2-0.2c-0.3,0-0.5-0.1-0.5-0.4
				c0-0.2,0.3-0.3,0.8-0.3c1.2,0,3.4,0.1,4.3,0.1c0.8,0,2.9-0.1,4.1-0.1c0.4,0,0.7,0.1,0.7,0.3c0,0.3-0.2,0.4-0.5,0.4
				c-0.3,0-0.6,0-1,0.1c-0.9,0.2-1.1,0.6-1.2,1.9c-0.1,1.1-0.1,2.1-0.1,7.3v6c0,3.3,0,6,0.1,7.5c0.1,0.9,0.3,1.4,1.3,1.6
				c0.4,0.1,1.2,0.1,1.6,0.1c0.4,0,0.5,0.2,0.5,0.4c0,0.2-0.3,0.4-0.6,0.4c-2.1,0-4.3-0.1-5.2-0.1c-0.7,0-2.9,0.1-4.2,0.1
				c-0.4,0-0.6-0.1-0.6-0.4c0-0.2,0.1-0.4,0.5-0.4c0.5,0,0.8,0,1.1-0.1c0.7-0.2,0.8-0.6,1-1.7c0.1-1.4,0.1-4.2,0.1-7.5V283.4z"/>
			<path d="M724.3,294.7c0.1,2.7,0.5,3.5,1.1,3.7c0.5,0.2,1.2,0.2,1.7,0.2c0.4,0,0.5,0.2,0.5,0.4c0,0.3-0.3,0.4-0.7,0.4
				c-2.1,0-3.6-0.1-4.2-0.1c-0.3,0-1.8,0.1-3.5,0.1c-0.4,0-0.7,0-0.7-0.4c0-0.2,0.2-0.4,0.5-0.4c0.4,0,1,0,1.5-0.2
				c0.8-0.2,1-1.2,1-4.1l0.3-20.3c0-0.7,0.2-1.2,0.5-1.2c0.4,0,0.8,0.5,1.4,1.1c0.4,0.4,5.2,5.9,9.9,10.9c2.2,2.4,6.5,7.2,7,7.7h0.1
				l-0.3-15.2c0-2.1-0.3-2.7-1.1-3c-0.5-0.2-1.2-0.2-1.7-0.2c-0.4,0-0.5-0.2-0.5-0.4c0-0.3,0.3-0.3,0.8-0.3c1.7,0,3.4,0.1,4.1,0.1
				c0.4,0,1.6-0.1,3.2-0.1c0.4,0,0.7,0,0.7,0.3c0,0.2-0.2,0.4-0.5,0.4c-0.3,0-0.6,0-1,0.1c-0.9,0.3-1.1,0.9-1.2,2.8l-0.4,21.6
				c0,0.8-0.3,1.1-0.5,1.1c-0.5,0-1-0.4-1.3-0.7c-2-2.1-6-6.3-9.4-9.9c-3.5-3.7-6.9-7.9-7.5-8.5h-0.1L724.3,294.7z"/>
			<path d="M772.6,297.1c0,0.9,0,1-0.4,1.2c-2.2,1.2-5.3,1.5-7.9,1.5c-7.9,0-14.9-3.9-14.9-13.4c0-5.5,2.7-9.3,5.6-11.2
				c3.1-2,6-2.2,8.7-2.2c2.2,0,5.1,0.4,5.7,0.6c0.7,0.1,1.8,0.3,2.6,0.4c0.4,0,0.4,0.2,0.4,0.4c0,0.4-0.2,1.3-0.2,5.6
				c0,0.5-0.2,0.8-0.4,0.8c-0.2,0-0.3-0.2-0.3-0.4c-0.1-0.8-0.3-1.9-1.1-2.8c-1-1.1-3.4-2.6-7-2.6c-1.8,0-4,0-6.2,2
				c-1.8,1.6-3,4.2-3,8.3c0,7.4,4.3,12.7,11.2,12.7c0.8,0,1.5,0,2.3-0.4c0.5-0.2,0.6-0.6,0.6-1.2v-3.1c0-1.7,0-3,0-4
				c0-1.2-0.4-1.5-1.4-1.9c-0.3-0.1-0.8-0.1-1.2-0.1c-0.3,0-0.5-0.2-0.5-0.4c0-0.3,0.3-0.3,0.7-0.3c1.7,0,4,0.1,4.9,0.1
				c1,0,2.7-0.1,3.8-0.1c0.4,0,0.7,0,0.7,0.3c0,0.2-0.2,0.4-0.4,0.4c-0.3,0-0.5,0-0.9,0.1c-0.9,0.2-1.2,0.6-1.2,1.9c0,1,0,2.4,0,4.1
				V297.1z"/>
		</g>
	</g>
</g>
</svg>
